<svg width="30" height="30" viewBox="0 0 30 30" fill="none" xmlns="http://www.w3.org/2000/svg">
<path fill-rule="evenodd" clip-rule="evenodd" d="M15 30C23.2843 30 30 23.2843 30 15C30 6.71573 23.2843 0 15 0C6.71573 0 0 6.71573 0 15C0 23.2843 6.71573 30 15 30ZM9.82288 23.8281C11.1058 23.8281 12.1458 22.7781 12.1458 21.4829C12.1458 20.1877 11.1058 19.1376 9.82292 19.1376C8.54 19.1376 7.5 20.1876 7.5 21.4829C7.5 22.7781 8.53996 23.8281 9.82288 23.8281ZM8.10905 12.7048C13.7227 13.0111 18.2144 17.5516 18.5174 23.2132C18.5353 23.5478 18.2691 23.8281 17.9372 23.8281H16.1936C15.8884 23.8281 15.6325 23.5904 15.6126 23.2829C15.3479 19.1788 12.0964 15.9042 8.03999 15.6375C7.73541 15.6175 7.5 15.359 7.5 15.0509V13.2905C7.5 12.9555 7.7777 12.6867 8.10905 12.7048ZM8.0986 7.42224C16.6212 7.73114 23.4452 14.661 23.7496 23.2238C23.7614 23.5545 23.4968 23.8281 23.1691 23.8282H21.4256C21.1127 23.8282 20.858 23.5779 20.8452 23.2623C20.5609 16.2622 14.995 10.6417 8.06052 10.3546C7.74792 10.3416 7.5 10.0846 7.5 9.7687V8.0084C7.5 7.67753 7.77106 7.41038 8.0986 7.42224Z" fill="#9f4e4b"/>
</svg>
